<?xml version="1.0" standalone="no"?><!DOCTYPE svg PUBLIC "-//W3C//DTD SVG 1.1//EN" "http://www.w3.org/Graphics/SVG/1.1/DTD/svg11.dtd"><svg t="1718508377482" class="icon" viewBox="0 0 1024 1024" version="1.1" xmlns="http://www.w3.org/2000/svg" p-id="2296" id="mx_n_1718508377483" xmlns:xlink="http://www.w3.org/1999/xlink" width="200" height="200"><path d="M511.8 116.5c0.2-6.8-3.3-13.3-9.3-16.7-5.9-3.5-13.2-3.5-19.1 0-5.9 3.5-9.4 9.9-9.3 16.7v207c0 10.4-1.5 37.6-37.6 37.6-34.9 0-37.6-27.3-37.6-37.6V107.1l-37.6-9.4-37.6 9.4v216.4c0 10.4-1.5 37.6-37.7 37.6-34.9 0-37.6-27.3-37.6-37.6v-207c0.1-6.8-3.4-13.2-9.3-16.6-5.9-3.4-13.2-3.4-19 0-5.9 3.4-9.4 9.8-9.3 16.6v18.8s-37.6 177.5-37.6 263.4c0 30.3 49.9 91.3 139.3 108.4L287 838.8c-0.6 3.8-0.9 7.7-0.9 11.6 0 41.6 33.8 75.3 75.3 75.3 41.6 0 75.3-33.7 75.3-75.3 0-3.9-0.3-7.8-0.9-11.6l-25.5-331.7c88.1-16.9 139.3-76.6 139.3-108.4 0-84.3-37.6-263.5-37.6-263.5s-0.2-11.7-0.2-18.7z m338.7 319.9c-2-160.2-71-277.2-118.2-320.5-6.8-11.4-19.1-18.3-32.3-18.3-20.8 0-37.6 16.9-37.6 37.7v715.1h3.2c-8.3 23.4-0.3 49.5 19.6 64.2 20 14.8 47.2 14.8 67.2 0s27.9-40.8 19.6-64.2h3.2V662.2s75.3-6.6 75.3-75.3V436.4z m0 0" fill="#7e0c6e" p-id="2297"></path></svg>